<svg xmlns="http://www.w3.org/2000/svg" xmlns:xlink="http://www.w3.org/1999/xlink" version="1.1" x="0px" y="0px" viewBox="0 0 100 125" enable-background="new 0 0 100 100" fill="rgba(0,0,0,0.6)" xml:space="preserve"><path d="M83.273,24.174h-0.352c-2.569,0-4.65,2.062-4.65,4.63l-1.668,20.872c-1.277-0.789-3.051-1.481-3.051-2.076V15.004  c0-2.565-1.497-4.604-4.062-4.604h-0.353c-2.566,0-4.649,2.059-4.649,4.627l-1.663,30.141c-1.346-0.184,0.395-0.338-3.049-0.432  V5.357c0-2.57-1.502-5.289-4.067-5.289h-0.351c-2.57,0-4.648,2.402-4.648,4.968l-1.667,39.539c-1.411,0.094-3.041,0.397-3.041,0.582  V10.868c0-2.566-1.509-7.356-4.077-7.356h-0.35c-2.567,0-4.649,3.433-4.649,6.002c0,0-1.485,49.061-3.249,50.419  c-0.532,0.405-1.074,1.048-1.62,1.291L21.782,41.933c-0.841-2.429-3.493-3.624-5.916-2.784l-0.334,0.157  c-2.423,0.84-3.705,3.513-2.864,5.938l11.058,28.865c2.859,14.704,16.009,25.822,31.807,25.822c17.437,0,31.35-13.532,32.057-30.497  c0.01-0.105-0.262-40.649-0.262-40.649C87.328,26.217,85.841,24.174,83.273,24.174z"/></svg>